<?xml version="1.0" standalone="no"?>
<!DOCTYPE svg PUBLIC "-//W3C//DTD SVG 20010904//EN"
 "http://www.w3.org/TR/2001/REC-SVG-20010904/DTD/svg10.dtd">
<svg version="1.0" xmlns="http://www.w3.org/2000/svg"
 width="246.000000pt" height="246.000000pt" viewBox="0 0 246.000000 246.000000"
 preserveAspectRatio="xMidYMid meet">
<metadata>
Created by potrace 1.11, written by Peter Selinger 2001-2013
</metadata>
<g transform="translate(0.000000,246.000000) scale(0.100000,-0.100000)"
fill="#000000" stroke="none">
<path d="M1841 2211 c-13 -13 -22 -46 -30 -117 -7 -54 -14 -110 -16 -124 -2
-14 -6 -50 -10 -80 -4 -30 -8 -66 -10 -80 -2 -14 -6 -47 -10 -75 -3 -27 -8
-66 -10 -85 -18 -142 -46 -362 -50 -395 -6 -48 -12 -95 -20 -150 -2 -22 -7
-58 -10 -80 -2 -22 -7 -56 -9 -75 -3 -19 -8 -60 -11 -90 -4 -30 -8 -66 -10
-80 -2 -14 -6 -46 -9 -72 -3 -26 -8 -63 -11 -82 -8 -55 -13 -95 -21 -161 -3
-33 -8 -68 -10 -77 -1 -9 -6 -46 -9 -81 -5 -50 -4 -66 9 -76 40 -33 71 7 81
106 3 34 7 70 9 80 2 10 7 45 10 78 4 33 9 75 12 92 11 82 13 103 23 178 6 44
13 105 17 135 3 30 8 58 9 61 6 8 225 10 225 1 0 -4 5 -36 10 -72 14 -103 22
-160 35 -265 3 -33 9 -71 11 -85 2 -14 9 -63 14 -110 25 -200 25 -198 55 -206
47 -12 58 10 50 100 -3 44 -8 82 -10 85 -1 3 -6 35 -10 71 -4 36 -8 72 -10 80
-3 14 -14 105 -20 160 -1 14 -5 44 -9 68 -3 23 -8 59 -11 80 -2 20 -12 93 -20
162 -9 69 -18 136 -20 150 -2 14 -11 81 -20 150 -17 138 -24 192 -30 230 -2
14 -6 48 -10 75 -5 48 -22 178 -30 240 -3 17 -9 66 -14 110 -27 210 -25 196
-36 216 -16 26 -44 30 -64 10z"/>
<path d="M75 2209 c-11 -6 -30 -21 -43 -32 -51 -47 -6 -89 60 -56 44 22 66 16
75 -20 4 -14 7 -102 6 -196 -2 -346 -15 -1532 -17 -1590 -2 -67 13 -95 49 -95
13 0 28 6 34 14 12 14 22 622 25 1486 1 426 1 425 -53 474 -25 23 -107 32
-136 15z"/>
<path d="M595 2211 c-3 -6 -28 -86 -56 -178 -77 -259 -94 -314 -154 -513 -31
-102 -56 -196 -57 -210 0 -14 31 -135 70 -270 38 -135 98 -344 132 -465 34
-121 70 -236 80 -255 57 -111 170 -131 239 -44 26 34 27 60 1 74 -21 11 -32 8
-65 -20 -36 -31 -53 -31 -74 -1 -12 16 -79 234 -156 502 l-135 473 121 405
c66 224 126 423 132 445 10 34 9 40 -8 52 -22 16 -61 18 -70 5z"/>
<path d="M1030 2206 c-13 -16 -13 -42 -4 -761 2 -231 6 -595 8 -808 2 -213 6
-391 10 -394 3 -3 89 -6 191 -5 192 0 215 5 215 42 0 37 -25 43 -178 44 l-147
1 -2 165 c0 91 -3 511 -6 933 -4 573 -9 772 -18 783 -15 18 -53 18 -69 0z"/>
<path d="M2334 418 c-84 -22 -89 -158 -7 -185 31 -10 36 -10 74 1 48 14 70 92
40 142 -23 38 -64 54 -107 42z"/>
</g>
</svg>
